<?xml version="1.0" encoding="us-ascii" standalone="no"?><svg xmlns="http://www.w3.org/2000/svg" xmlns:xlink="http://www.w3.org/1999/xlink" contentStyleType="text/css" height="871px" preserveAspectRatio="none" style="width:1711px;height:871px;background:#FFFFFF;" version="1.1" viewBox="0 0 1711 871" width="1711px" zoomAndPan="magnify"><defs/><g><!--cluster API--><g id="cluster_API"><path d="M8.5,6 L35.5,6 A3.75,3.75 0 0 1 38,8.5 L45,28.2969 L1701.5,28.2969 A2.5,2.5 0 0 1 1704,30.7969 L1704,861.5 A2.5,2.5 0 0 1 1701.5,864 L8.5,864 A2.5,2.5 0 0 1 6,861.5 L6,8.5 A2.5,2.5 0 0 1 8.5,6 " fill="none" style="stroke:#000000;stroke-width:1.5;"/><line style="stroke:#000000;stroke-width:1.5;" x1="6" x2="45" y1="28.2969" y2="28.2969"/><text fill="#000000" font-family="sans-serif" font-size="14" font-weight="bold" lengthAdjust="spacing" textLength="26" x="10" y="20.9951">API</text></g><!--cluster interfaces--><g id="cluster_interfaces"><path d="M376.5,49 L460.5,49 A3.75,3.75 0 0 1 463,51.5 L470,71.2969 L1677.5,71.2969 A2.5,2.5 0 0 1 1680,73.7969 L1680,434.5 A2.5,2.5 0 0 1 1677.5,437 L376.5,437 A2.5,2.5 0 0 1 374,434.5 L374,51.5 A2.5,2.5 0 0 1 376.5,49 " fill="none" style="stroke:#000000;stroke-width:1.5;"/><line style="stroke:#000000;stroke-width:1.5;" x1="374" x2="470" y1="71.2969" y2="71.2969"/><text fill="#000000" font-family="sans-serif" font-size="14" font-weight="bold" lengthAdjust="spacing" textLength="83" x="378" y="63.9951">interfaces</text></g><!--cluster controlleri--><g id="cluster_controlleri"><path d="M1142.5,92 L1228.5,92 A3.75,3.75 0 0 1 1231,94.5 L1238,114.2969 L1653.5,114.2969 A2.5,2.5 0 0 1 1656,116.7969 L1656,253.5 A2.5,2.5 0 0 1 1653.5,256 L1142.5,256 A2.5,2.5 0 0 1 1140,253.5 L1140,94.5 A2.5,2.5 0 0 1 1142.5,92 " fill="none" style="stroke:#000000;stroke-width:1.5;"/><line style="stroke:#000000;stroke-width:1.5;" x1="1140" x2="1238" y1="114.2969" y2="114.2969"/><text fill="#000000" font-family="sans-serif" font-size="14" font-weight="bold" lengthAdjust="spacing" textLength="85" x="1144" y="106.9951">controlleri</text></g><!--cluster modeli--><g id="cluster_modeli"><path d="M400.5,92 L455.5,92 A3.75,3.75 0 0 1 458,94.5 L465,114.2969 L1113.5,114.2969 A2.5,2.5 0 0 1 1116,116.7969 L1116,410.5 A2.5,2.5 0 0 1 1113.5,413 L400.5,413 A2.5,2.5 0 0 1 398,410.5 L398,94.5 A2.5,2.5 0 0 1 400.5,92 " fill="none" style="stroke:#000000;stroke-width:1.5;"/><line style="stroke:#000000;stroke-width:1.5;" x1="398" x2="465" y1="114.2969" y2="114.2969"/><text fill="#000000" font-family="sans-serif" font-size="14" font-weight="bold" lengthAdjust="spacing" textLength="54" x="402" y="106.9951">modeli</text></g><!--cluster controller--><g id="cluster_controller"><path d="M32.5,461 L113.5,461 A3.75,3.75 0 0 1 116,463.5 L123,483.2969 L619.5,483.2969 A2.5,2.5 0 0 1 622,485.7969 L622,681.5 A2.5,2.5 0 0 1 619.5,684 L32.5,684 A2.5,2.5 0 0 1 30,681.5 L30,463.5 A2.5,2.5 0 0 1 32.5,461 " fill="none" style="stroke:#000000;stroke-width:1.5;"/><line style="stroke:#000000;stroke-width:1.5;" x1="30" x2="123" y1="483.2969" y2="483.2969"/><text fill="#000000" font-family="sans-serif" font-size="14" font-weight="bold" lengthAdjust="spacing" textLength="80" x="34" y="475.9951">controller</text></g><!--cluster model--><g id="cluster_model"><path d="M98.5,708 L148.5,708 A3.75,3.75 0 0 1 151,710.5 L158,730.2969 L497.5,730.2969 A2.5,2.5 0 0 1 500,732.7969 L500,837.5 A2.5,2.5 0 0 1 497.5,840 L98.5,840 A2.5,2.5 0 0 1 96,837.5 L96,710.5 A2.5,2.5 0 0 1 98.5,708 " fill="none" style="stroke:#000000;stroke-width:1.5;"/><line style="stroke:#000000;stroke-width:1.5;" x1="96" x2="158" y1="730.2969" y2="730.2969"/><text fill="#000000" font-family="sans-serif" font-size="14" font-weight="bold" lengthAdjust="spacing" textLength="49" x="100" y="722.9951">model</text></g><!--cluster presenter--><g id="cluster_presenter"><path d="M32.5,281.5 L111.5,281.5 A3.75,3.75 0 0 1 114,284 L121,303.7969 L347.5,303.7969 A2.5,2.5 0 0 1 350,306.2969 L350,394 A2.5,2.5 0 0 1 347.5,396.5 L32.5,396.5 A2.5,2.5 0 0 1 30,394 L30,284 A2.5,2.5 0 0 1 32.5,281.5 " fill="none" style="stroke:#000000;stroke-width:1.5;"/><line style="stroke:#000000;stroke-width:1.5;" x1="30" x2="121" y1="303.7969" y2="303.7969"/><text fill="#000000" font-family="sans-serif" font-size="14" font-weight="bold" lengthAdjust="spacing" textLength="78" x="34" y="296.4951">presenter</text></g><!--class app--><g id="elem_app"><rect codeLine="48" fill="#F1F1F1" height="48" id="app" rx="2.5" ry="2.5" style="stroke:#181818;stroke-width:0.5;" width="60" x="160" y="159.5"/><ellipse cx="175" cy="175.5" fill="#ADD1B2" rx="11" ry="11" style="stroke:#181818;stroke-width:1.0;"/><path d="M177.3438,171.1719 C176.4063,170.7344 175.8125,170.5938 174.9375,170.5938 C172.3125,170.5938 170.3125,172.6719 170.3125,175.3906 L170.3125,176.5156 C170.3125,179.0938 172.4219,180.9844 175.3125,180.9844 C176.5313,180.9844 177.6875,180.6875 178.4375,180.1406 C179.0156,179.7344 179.3438,179.2813 179.3438,178.8906 C179.3438,178.4375 178.9531,178.0469 178.4844,178.0469 C178.2656,178.0469 178.0625,178.125 177.875,178.3125 C177.4219,178.7969 177.4219,178.7969 177.2344,178.8906 C176.8125,179.1563 176.125,179.2813 175.3594,179.2813 C173.3125,179.2813 172.0156,178.1875 172.0156,176.4844 L172.0156,175.3906 C172.0156,173.6094 173.2656,172.2969 175,172.2969 C175.5781,172.2969 176.1875,172.4531 176.6563,172.7031 C177.1406,172.9844 177.3125,173.2031 177.4063,173.6094 C177.4688,174.0156 177.5,174.1406 177.6406,174.2656 C177.7813,174.4063 178.0156,174.5156 178.2344,174.5156 C178.5,174.5156 178.7656,174.375 178.9375,174.1563 C179.0469,174 179.0781,173.8125 179.0781,173.3906 L179.0781,171.9688 C179.0781,171.5313 179.0625,171.4063 178.9688,171.25 C178.8125,170.9844 178.5313,170.8438 178.2344,170.8438 C177.9375,170.8438 177.7344,170.9375 177.5156,171.25 L177.3438,171.1719 Z " fill="#000000"/><text fill="#000000" font-family="sans-serif" font-size="14" lengthAdjust="spacing" textLength="28" x="189" y="180.3467">app</text><line style="stroke:#181818;stroke-width:0.5;" x1="161" x2="219" y1="191.5" y2="191.5"/><line style="stroke:#181818;stroke-width:0.5;" x1="161" x2="219" y1="199.5" y2="199.5"/></g><!--class OperationController--><g id="elem_OperationController"><rect codeLine="5" fill="#F1F1F1" height="113.1875" id="OperationController" rx="2.5" ry="2.5" style="stroke:#181818;stroke-width:0.5;" width="483" x="1156.5" y="127"/><ellipse cx="1322.75" cy="143" fill="#B4A7E5" rx="11" ry="11" style="stroke:#181818;stroke-width:1.0;"/><path d="M1323.7031,139.7813 L1325.4219,139.7813 C1325.8125,139.7813 1326,139.75 1326.125,139.6719 C1326.3906,139.5156 1326.5313,139.2344 1326.5313,138.9375 C1326.5313,138.6719 1326.4219,138.4063 1326.1875,138.2344 C1326.0156,138.125 1325.875,138.0938 1325.4219,138.0938 L1320.2813,138.0938 C1319.8438,138.0938 1319.7188,138.1094 1319.5625,138.2031 C1319.3125,138.3594 1319.1563,138.6563 1319.1563,138.9375 C1319.1563,139.2188 1319.2969,139.4688 1319.5156,139.6406 C1319.6719,139.75 1319.8594,139.7813 1320.2813,139.7813 L1322,139.7813 L1322,146.2969 L1320.2813,146.2969 C1319.8438,146.2969 1319.7188,146.3125 1319.5625,146.4219 C1319.3125,146.5781 1319.1563,146.8594 1319.1563,147.1563 C1319.1563,147.4063 1319.2969,147.6719 1319.5156,147.8281 C1319.6719,147.9531 1319.875,148 1320.2813,148 L1325.4219,148 C1326.1719,148 1326.5313,147.7188 1326.5313,147.1563 C1326.5313,146.875 1326.4219,146.625 1326.1875,146.4531 C1326.0156,146.3281 1325.875,146.2969 1325.4219,146.2969 L1323.7031,146.2969 L1323.7031,139.7813 Z " fill="#000000"/><text fill="#000000" font-family="sans-serif" font-size="14" font-style="italic" lengthAdjust="spacing" textLength="142" x="1343.25" y="147.8467">OperationController</text><line style="stroke:#181818;stroke-width:0.5;" x1="1157.5" x2="1638.5" y1="159" y2="159"/><line style="stroke:#181818;stroke-width:0.5;" x1="1157.5" x2="1638.5" y1="167" y2="167"/><text fill="#000000" font-family="sans-serif" font-size="14" lengthAdjust="spacing" textLength="45" x="1162.5" y="183.9951">():void</text><text fill="#000000" font-family="sans-serif" font-size="14" lengthAdjust="spacing" textLength="378" x="1162.5" y="200.292">getOperationData(payload: Payload): OperationData</text><text fill="#000000" font-family="sans-serif" font-size="14" lengthAdjust="spacing" textLength="450" x="1162.5" y="216.5889">executeOperation(operationData: OperationData): ResultData</text><text fill="#000000" font-family="sans-serif" font-size="14" lengthAdjust="spacing" textLength="471" x="1162.5" y="232.8857">addOperationToHistoryCorrectly(resultData: ResultData):boolean</text></g><!--class OperationType--><g id="elem_OperationType"><rect codeLine="14" fill="#F1F1F1" height="80.5938" id="OperationType" rx="2.5" ry="2.5" style="stroke:#181818;stroke-width:0.5;" width="141" x="686.5" y="143"/><ellipse cx="701.5" cy="159" fill="#EB937F" rx="11" ry="11" style="stroke:#181818;stroke-width:1.0;"/><path d="M700.2969,159.875 L701.75,159.875 L701.75,159.9844 C701.75,160.3906 701.7813,160.5469 701.8594,160.7031 C702.0156,160.9531 702.2969,161.1094 702.5938,161.1094 C702.8438,161.1094 703.1094,160.9688 703.2656,160.75 C703.3906,160.5938 703.4219,160.4375 703.4219,159.9844 L703.4219,158.0625 C703.4219,157.9063 703.4219,157.8594 703.4063,157.7031 C703.3438,157.2344 703.0313,156.9219 702.5781,156.9219 C702.3281,156.9219 702.0625,157.0625 701.8906,157.2813 C701.7813,157.4531 701.75,157.6094 701.75,158.0625 L701.75,158.1875 L700.2969,158.1875 L700.2969,155.7813 L704.2813,155.7813 L704.2813,156.6406 C704.2813,157.0469 704.3125,157.2188 704.3906,157.375 C704.5625,157.625 704.8438,157.7813 705.125,157.7813 C705.3906,157.7813 705.6563,157.6406 705.8281,157.4219 C705.9375,157.25 705.9688,157.1094 705.9688,156.6406 L705.9688,154.0938 L698.3438,154.0938 C697.9063,154.0938 697.7813,154.1094 697.625,154.2031 C697.375,154.3594 697.2188,154.6563 697.2188,154.9375 C697.2188,155.2188 697.3594,155.4688 697.5781,155.6406 C697.7344,155.75 697.9219,155.7813 698.3438,155.7813 L698.5938,155.7813 L698.5938,162.2969 L698.3438,162.2969 C697.9375,162.2969 697.7813,162.3125 697.625,162.4219 C697.375,162.5938 697.2188,162.8594 697.2188,163.1563 C697.2188,163.4219 697.3594,163.6719 697.5781,163.8281 C697.7188,163.9531 697.9531,164 698.3438,164 L706.3438,164 L706.3438,161.4219 C706.3438,160.9844 706.3125,160.8438 706.2344,160.6875 C706.0625,160.4375 705.7813,160.2813 705.5,160.2813 C705.2344,160.2813 704.9688,160.3906 704.7969,160.6406 C704.6875,160.7969 704.6563,160.9375 704.6563,161.4219 L704.6563,162.2969 L700.2969,162.2969 L700.2969,159.875 Z " fill="#000000"/><text fill="#000000" font-family="sans-serif" font-size="14" lengthAdjust="spacing" textLength="109" x="715.5" y="163.8467">OperationType</text><line style="stroke:#181818;stroke-width:0.5;" x1="687.5" x2="826.5" y1="175" y2="175"/><ellipse cx="697.5" cy="188.6484" fill="none" rx="3" ry="3" style="stroke:#038048;stroke-width:1.0;"/><text fill="#000000" font-family="sans-serif" font-size="14" lengthAdjust="spacing" textLength="105" x="706.5" y="191.9951">ErrorControler</text><ellipse cx="697.5" cy="204.9453" fill="none" rx="3" ry="3" style="stroke:#038048;stroke-width:1.0;"/><text fill="#000000" font-family="sans-serif" font-size="14" lengthAdjust="spacing" textLength="30" x="706.5" y="208.292">SUM</text><line style="stroke:#181818;stroke-width:0.5;" x1="687.5" x2="826.5" y1="215.5938" y2="215.5938"/></g><!--class OperationData--><g id="elem_OperationData"><rect codeLine="19" fill="#F1F1F1" height="113.1875" id="OperationData" rx="2.5" ry="2.5" style="stroke:#181818;stroke-width:0.5;" width="237" x="414.5" y="127"/><ellipse cx="476.25" cy="143" fill="#B4A7E5" rx="11" ry="11" style="stroke:#181818;stroke-width:1.0;"/><path d="M477.2031,139.7813 L478.9219,139.7813 C479.3125,139.7813 479.5,139.75 479.625,139.6719 C479.8906,139.5156 480.0313,139.2344 480.0313,138.9375 C480.0313,138.6719 479.9219,138.4063 479.6875,138.2344 C479.5156,138.125 479.375,138.0938 478.9219,138.0938 L473.7813,138.0938 C473.3438,138.0938 473.2188,138.1094 473.0625,138.2031 C472.8125,138.3594 472.6563,138.6563 472.6563,138.9375 C472.6563,139.2188 472.7969,139.4688 473.0156,139.6406 C473.1719,139.75 473.3594,139.7813 473.7813,139.7813 L475.5,139.7813 L475.5,146.2969 L473.7813,146.2969 C473.3438,146.2969 473.2188,146.3125 473.0625,146.4219 C472.8125,146.5781 472.6563,146.8594 472.6563,147.1563 C472.6563,147.4063 472.7969,147.6719 473.0156,147.8281 C473.1719,147.9531 473.375,148 473.7813,148 L478.9219,148 C479.6719,148 480.0313,147.7188 480.0313,147.1563 C480.0313,146.875 479.9219,146.625 479.6875,146.4531 C479.5156,146.3281 479.375,146.2969 478.9219,146.2969 L477.2031,146.2969 L477.2031,139.7813 Z " fill="#000000"/><text fill="#000000" font-family="sans-serif" font-size="14" font-style="italic" lengthAdjust="spacing" textLength="105" x="496.75" y="147.8467">OperationData</text><line style="stroke:#181818;stroke-width:0.5;" x1="415.5" x2="650.5" y1="159" y2="159"/><text fill="#000000" font-family="sans-serif" font-size="14" lengthAdjust="spacing" textLength="130" x="420.5" y="175.9951">number1: number</text><text fill="#000000" font-family="sans-serif" font-size="14" lengthAdjust="spacing" textLength="129" x="420.5" y="192.292">number2: number</text><text fill="#000000" font-family="sans-serif" font-size="14" lengthAdjust="spacing" textLength="225" x="420.5" y="208.5889">operationType: OperationType</text><text fill="#000000" font-family="sans-serif" font-size="14" lengthAdjust="spacing" textLength="127" x="420.5" y="224.8857">hasError: boolean</text><line style="stroke:#181818;stroke-width:0.5;" x1="415.5" x2="650.5" y1="232.1875" y2="232.1875"/></g><!--class ResultData--><g id="elem_ResultData"><rect codeLine="26" fill="#F1F1F1" height="80.5938" id="ResultData" rx="2.5" ry="2.5" style="stroke:#181818;stroke-width:0.5;" width="165" x="450.5" y="308"/><ellipse cx="490.25" cy="324" fill="#B4A7E5" rx="11" ry="11" style="stroke:#181818;stroke-width:1.0;"/><path d="M491.2031,320.7813 L492.9219,320.7813 C493.3125,320.7813 493.5,320.75 493.625,320.6719 C493.8906,320.5156 494.0313,320.2344 494.0313,319.9375 C494.0313,319.6719 493.9219,319.4063 493.6875,319.2344 C493.5156,319.125 493.375,319.0938 492.9219,319.0938 L487.7813,319.0938 C487.3438,319.0938 487.2188,319.1094 487.0625,319.2031 C486.8125,319.3594 486.6563,319.6563 486.6563,319.9375 C486.6563,320.2188 486.7969,320.4688 487.0156,320.6406 C487.1719,320.75 487.3594,320.7813 487.7813,320.7813 L489.5,320.7813 L489.5,327.2969 L487.7813,327.2969 C487.3438,327.2969 487.2188,327.3125 487.0625,327.4219 C486.8125,327.5781 486.6563,327.8594 486.6563,328.1563 C486.6563,328.4063 486.7969,328.6719 487.0156,328.8281 C487.1719,328.9531 487.375,329 487.7813,329 L492.9219,329 C493.6719,329 494.0313,328.7188 494.0313,328.1563 C494.0313,327.875 493.9219,327.625 493.6875,327.4531 C493.5156,327.3281 493.375,327.2969 492.9219,327.2969 L491.2031,327.2969 L491.2031,320.7813 Z " fill="#000000"/><text fill="#000000" font-family="sans-serif" font-size="14" font-style="italic" lengthAdjust="spacing" textLength="78" x="509.75" y="328.8467">ResultData</text><line style="stroke:#181818;stroke-width:0.5;" x1="451.5" x2="614.5" y1="340" y2="340"/><text fill="#000000" font-family="sans-serif" font-size="14" lengthAdjust="spacing" textLength="106" x="456.5" y="356.9951">result: number</text><text fill="#000000" font-family="sans-serif" font-size="14" lengthAdjust="spacing" textLength="153" x="456.5" y="373.292">resultMessage: string</text><line style="stroke:#181818;stroke-width:0.5;" x1="451.5" x2="614.5" y1="380.5938" y2="380.5938"/></g><!--class HistoryData--><g id="elem_HistoryData"><rect codeLine="31" fill="#F1F1F1" height="96.8906" id="HistoryData" rx="2.5" ry="2.5" style="stroke:#181818;stroke-width:0.5;" width="237" x="862.5" y="135"/><ellipse cx="934.75" cy="151" fill="#B4A7E5" rx="11" ry="11" style="stroke:#181818;stroke-width:1.0;"/><path d="M935.7031,147.7813 L937.4219,147.7813 C937.8125,147.7813 938,147.75 938.125,147.6719 C938.3906,147.5156 938.5313,147.2344 938.5313,146.9375 C938.5313,146.6719 938.4219,146.4063 938.1875,146.2344 C938.0156,146.125 937.875,146.0938 937.4219,146.0938 L932.2813,146.0938 C931.8438,146.0938 931.7188,146.1094 931.5625,146.2031 C931.3125,146.3594 931.1563,146.6563 931.1563,146.9375 C931.1563,147.2188 931.2969,147.4688 931.5156,147.6406 C931.6719,147.75 931.8594,147.7813 932.2813,147.7813 L934,147.7813 L934,154.2969 L932.2813,154.2969 C931.8438,154.2969 931.7188,154.3125 931.5625,154.4219 C931.3125,154.5781 931.1563,154.8594 931.1563,155.1563 C931.1563,155.4063 931.2969,155.6719 931.5156,155.8281 C931.6719,155.9531 931.875,156 932.2813,156 L937.4219,156 C938.1719,156 938.5313,155.7188 938.5313,155.1563 C938.5313,154.875 938.4219,154.625 938.1875,154.4531 C938.0156,154.3281 937.875,154.2969 937.4219,154.2969 L935.7031,154.2969 L935.7031,147.7813 Z " fill="#000000"/><text fill="#000000" font-family="sans-serif" font-size="14" font-style="italic" lengthAdjust="spacing" textLength="84" x="955.25" y="155.8467">HistoryData</text><line style="stroke:#181818;stroke-width:0.5;" x1="863.5" x2="1098.5" y1="167" y2="167"/><text fill="#000000" font-family="sans-serif" font-size="14" lengthAdjust="spacing" textLength="225" x="868.5" y="183.9951">operationType: OperationType</text><text fill="#000000" font-family="sans-serif" font-size="14" lengthAdjust="spacing" textLength="103" x="868.5" y="200.292">error: boolean</text><text fill="#000000" font-family="sans-serif" font-size="14" lengthAdjust="spacing" textLength="153" x="868.5" y="216.5889">resultMessage: string</text><line style="stroke:#181818;stroke-width:0.5;" x1="863.5" x2="1098.5" y1="223.8906" y2="223.8906"/></g><!--class Payload--><g id="elem_Payload"><rect codeLine="37" fill="#F1F1F1" height="96.8906" id="Payload" rx="2.5" ry="2.5" style="stroke:#181818;stroke-width:0.5;" width="142" x="686" y="300"/><ellipse cx="725.3" cy="316" fill="#B4A7E5" rx="11" ry="11" style="stroke:#181818;stroke-width:1.0;"/><path d="M726.2531,312.7813 L727.9719,312.7813 C728.3625,312.7813 728.55,312.75 728.675,312.6719 C728.9406,312.5156 729.0813,312.2344 729.0813,311.9375 C729.0813,311.6719 728.9719,311.4063 728.7375,311.2344 C728.5656,311.125 728.425,311.0938 727.9719,311.0938 L722.8313,311.0938 C722.3938,311.0938 722.2688,311.1094 722.1125,311.2031 C721.8625,311.3594 721.7063,311.6563 721.7063,311.9375 C721.7063,312.2188 721.8469,312.4688 722.0656,312.6406 C722.2219,312.75 722.4094,312.7813 722.8313,312.7813 L724.55,312.7813 L724.55,319.2969 L722.8313,319.2969 C722.3938,319.2969 722.2688,319.3125 722.1125,319.4219 C721.8625,319.5781 721.7063,319.8594 721.7063,320.1563 C721.7063,320.4063 721.8469,320.6719 722.0656,320.8281 C722.2219,320.9531 722.425,321 722.8313,321 L727.9719,321 C728.7219,321 729.0813,320.7188 729.0813,320.1563 C729.0813,319.875 728.9719,319.625 728.7375,319.4531 C728.5656,319.3281 728.425,319.2969 727.9719,319.2969 L726.2531,319.2969 L726.2531,312.7813 Z " fill="#000000"/><text fill="#000000" font-family="sans-serif" font-size="14" font-style="italic" lengthAdjust="spacing" textLength="56" x="744.7" y="320.8467">Payload</text><line style="stroke:#181818;stroke-width:0.5;" x1="687" x2="827" y1="332" y2="332"/><text fill="#000000" font-family="sans-serif" font-size="14" lengthAdjust="spacing" textLength="130" x="692" y="348.9951">number1: number</text><text fill="#000000" font-family="sans-serif" font-size="14" lengthAdjust="spacing" textLength="129" x="692" y="365.292">number2: number</text><text fill="#000000" font-family="sans-serif" font-size="14" lengthAdjust="spacing" textLength="122" x="692" y="381.5889">operation: string</text><line style="stroke:#181818;stroke-width:0.5;" x1="687" x2="827" y1="388.8906" y2="388.8906"/></g><!--class OperationControllerFactory--><g id="elem_OperationControllerFactory"><rect codeLine="51" fill="#F1F1F1" height="64.2969" id="OperationControllerFactory" rx="2.5" ry="2.5" style="stroke:#181818;stroke-width:0.5;" width="559" x="46.5" y="496"/><ellipse cx="221.75" cy="512" fill="#ADD1B2" rx="11" ry="11" style="stroke:#181818;stroke-width:1.0;"/><path d="M224.0938,507.6719 C223.1563,507.2344 222.5625,507.0938 221.6875,507.0938 C219.0625,507.0938 217.0625,509.1719 217.0625,511.8906 L217.0625,513.0156 C217.0625,515.5938 219.1719,517.4844 222.0625,517.4844 C223.2813,517.4844 224.4375,517.1875 225.1875,516.6406 C225.7656,516.2344 226.0938,515.7813 226.0938,515.3906 C226.0938,514.9375 225.7031,514.5469 225.2344,514.5469 C225.0156,514.5469 224.8125,514.625 224.625,514.8125 C224.1719,515.2969 224.1719,515.2969 223.9844,515.3906 C223.5625,515.6563 222.875,515.7813 222.1094,515.7813 C220.0625,515.7813 218.7656,514.6875 218.7656,512.9844 L218.7656,511.8906 C218.7656,510.1094 220.0156,508.7969 221.75,508.7969 C222.3281,508.7969 222.9375,508.9531 223.4063,509.2031 C223.8906,509.4844 224.0625,509.7031 224.1563,510.1094 C224.2188,510.5156 224.25,510.6406 224.3906,510.7656 C224.5313,510.9063 224.7656,511.0156 224.9844,511.0156 C225.25,511.0156 225.5156,510.875 225.6875,510.6563 C225.7969,510.5 225.8281,510.3125 225.8281,509.8906 L225.8281,508.4688 C225.8281,508.0313 225.8125,507.9063 225.7188,507.75 C225.5625,507.4844 225.2813,507.3438 224.9844,507.3438 C224.6875,507.3438 224.4844,507.4375 224.2656,507.75 L224.0938,507.6719 Z " fill="#000000"/><text fill="#000000" font-family="sans-serif" font-size="14" lengthAdjust="spacing" textLength="200" x="242.25" y="516.8467">OperationControllerFactory</text><line style="stroke:#181818;stroke-width:0.5;" x1="47.5" x2="604.5" y1="528" y2="528"/><line style="stroke:#181818;stroke-width:0.5;" x1="47.5" x2="604.5" y1="536" y2="536"/><ellipse cx="57.5" cy="549.6484" fill="#84BE84" rx="3" ry="3" style="stroke:#038048;stroke-width:1.0;"/><text fill="#000000" font-family="sans-serif" font-size="14" lengthAdjust="spacing" textLength="533" x="66.5" y="552.9951">OperationControllerFactory(Payload, OperationType):OperationController</text></g><!--class ErrorControler--><g id="elem_ErrorControler"><rect codeLine="54" fill="#F1F1F1" height="48" id="ErrorControler" rx="2.5" ry="2.5" style="stroke:#181818;stroke-width:0.5;" width="137" x="124.5" y="620"/><ellipse cx="139.5" cy="636" fill="#ADD1B2" rx="11" ry="11" style="stroke:#181818;stroke-width:1.0;"/><path d="M141.8438,631.6719 C140.9063,631.2344 140.3125,631.0938 139.4375,631.0938 C136.8125,631.0938 134.8125,633.1719 134.8125,635.8906 L134.8125,637.0156 C134.8125,639.5938 136.9219,641.4844 139.8125,641.4844 C141.0313,641.4844 142.1875,641.1875 142.9375,640.6406 C143.5156,640.2344 143.8438,639.7813 143.8438,639.3906 C143.8438,638.9375 143.4531,638.5469 142.9844,638.5469 C142.7656,638.5469 142.5625,638.625 142.375,638.8125 C141.9219,639.2969 141.9219,639.2969 141.7344,639.3906 C141.3125,639.6563 140.625,639.7813 139.8594,639.7813 C137.8125,639.7813 136.5156,638.6875 136.5156,636.9844 L136.5156,635.8906 C136.5156,634.1094 137.7656,632.7969 139.5,632.7969 C140.0781,632.7969 140.6875,632.9531 141.1563,633.2031 C141.6406,633.4844 141.8125,633.7031 141.9063,634.1094 C141.9688,634.5156 142,634.6406 142.1406,634.7656 C142.2813,634.9063 142.5156,635.0156 142.7344,635.0156 C143,635.0156 143.2656,634.875 143.4375,634.6563 C143.5469,634.5 143.5781,634.3125 143.5781,633.8906 L143.5781,632.4688 C143.5781,632.0313 143.5625,631.9063 143.4688,631.75 C143.3125,631.4844 143.0313,631.3438 142.7344,631.3438 C142.4375,631.3438 142.2344,631.4375 142.0156,631.75 L141.8438,631.6719 Z " fill="#000000"/><text fill="#000000" font-family="sans-serif" font-size="14" lengthAdjust="spacing" textLength="105" x="153.5" y="640.8467">ErrorControler</text><line style="stroke:#181818;stroke-width:0.5;" x1="125.5" x2="260.5" y1="652" y2="652"/><line style="stroke:#181818;stroke-width:0.5;" x1="125.5" x2="260.5" y1="660" y2="660"/></g><!--class SumController--><g id="elem_SumController"><rect codeLine="55" fill="#F1F1F1" height="48" id="SumController" rx="2.5" ry="2.5" style="stroke:#181818;stroke-width:0.5;" width="136" x="297" y="620"/><ellipse cx="312" cy="636" fill="#ADD1B2" rx="11" ry="11" style="stroke:#181818;stroke-width:1.0;"/><path d="M314.3438,631.6719 C313.4063,631.2344 312.8125,631.0938 311.9375,631.0938 C309.3125,631.0938 307.3125,633.1719 307.3125,635.8906 L307.3125,637.0156 C307.3125,639.5938 309.4219,641.4844 312.3125,641.4844 C313.5313,641.4844 314.6875,641.1875 315.4375,640.6406 C316.0156,640.2344 316.3438,639.7813 316.3438,639.3906 C316.3438,638.9375 315.9531,638.5469 315.4844,638.5469 C315.2656,638.5469 315.0625,638.625 314.875,638.8125 C314.4219,639.2969 314.4219,639.2969 314.2344,639.3906 C313.8125,639.6563 313.125,639.7813 312.3594,639.7813 C310.3125,639.7813 309.0156,638.6875 309.0156,636.9844 L309.0156,635.8906 C309.0156,634.1094 310.2656,632.7969 312,632.7969 C312.5781,632.7969 313.1875,632.9531 313.6563,633.2031 C314.1406,633.4844 314.3125,633.7031 314.4063,634.1094 C314.4688,634.5156 314.5,634.6406 314.6406,634.7656 C314.7813,634.9063 315.0156,635.0156 315.2344,635.0156 C315.5,635.0156 315.7656,634.875 315.9375,634.6563 C316.0469,634.5 316.0781,634.3125 316.0781,633.8906 L316.0781,632.4688 C316.0781,632.0313 316.0625,631.9063 315.9688,631.75 C315.8125,631.4844 315.5313,631.3438 315.2344,631.3438 C314.9375,631.3438 314.7344,631.4375 314.5156,631.75 L314.3438,631.6719 Z " fill="#000000"/><text fill="#000000" font-family="sans-serif" font-size="14" lengthAdjust="spacing" textLength="104" x="326" y="640.8467">SumController</text><line style="stroke:#181818;stroke-width:0.5;" x1="298" x2="432" y1="652" y2="652"/><line style="stroke:#181818;stroke-width:0.5;" x1="298" x2="432" y1="660" y2="660"/></g><!--class OperationHistory--><g id="elem_OperationHistory"><rect codeLine="59" fill="#F1F1F1" height="80.5938" id="OperationHistory" rx="2.5" ry="2.5" style="stroke:#181818;stroke-width:0.5;" width="371" x="112.5" y="743"/><ellipse cx="231.75" cy="759" fill="#ADD1B2" rx="11" ry="11" style="stroke:#181818;stroke-width:1.0;"/><path d="M234.0938,754.6719 C233.1563,754.2344 232.5625,754.0938 231.6875,754.0938 C229.0625,754.0938 227.0625,756.1719 227.0625,758.8906 L227.0625,760.0156 C227.0625,762.5938 229.1719,764.4844 232.0625,764.4844 C233.2813,764.4844 234.4375,764.1875 235.1875,763.6406 C235.7656,763.2344 236.0938,762.7813 236.0938,762.3906 C236.0938,761.9375 235.7031,761.5469 235.2344,761.5469 C235.0156,761.5469 234.8125,761.625 234.625,761.8125 C234.1719,762.2969 234.1719,762.2969 233.9844,762.3906 C233.5625,762.6563 232.875,762.7813 232.1094,762.7813 C230.0625,762.7813 228.7656,761.6875 228.7656,759.9844 L228.7656,758.8906 C228.7656,757.1094 230.0156,755.7969 231.75,755.7969 C232.3281,755.7969 232.9375,755.9531 233.4063,756.2031 C233.8906,756.4844 234.0625,756.7031 234.1563,757.1094 C234.2188,757.5156 234.25,757.6406 234.3906,757.7656 C234.5313,757.9063 234.7656,758.0156 234.9844,758.0156 C235.25,758.0156 235.5156,757.875 235.6875,757.6563 C235.7969,757.5 235.8281,757.3125 235.8281,756.8906 L235.8281,755.4688 C235.8281,755.0313 235.8125,754.9063 235.7188,754.75 C235.5625,754.4844 235.2813,754.3438 234.9844,754.3438 C234.6875,754.3438 234.4844,754.4375 234.2656,754.75 L234.0938,754.6719 Z " fill="#000000"/><text fill="#000000" font-family="sans-serif" font-size="14" lengthAdjust="spacing" textLength="124" x="252.25" y="763.8467">OperationHistory</text><line style="stroke:#181818;stroke-width:0.5;" x1="113.5" x2="482.5" y1="775" y2="775"/><line style="stroke:#181818;stroke-width:0.5;" x1="113.5" x2="482.5" y1="783" y2="783"/><ellipse cx="123.5" cy="796.6484" fill="#84BE84" rx="3" ry="3" style="stroke:#038048;stroke-width:1.0;"/><text fill="#000000" font-family="sans-serif" font-size="14" lengthAdjust="spacing" textLength="345" x="132.5" y="799.9951">pushResultData(resultData:ResultData):boolean</text><ellipse cx="123.5" cy="812.9453" fill="#84BE84" rx="3" ry="3" style="stroke:#038048;stroke-width:1.0;"/><text fill="#000000" font-family="sans-serif" font-size="14" lengthAdjust="spacing" textLength="215" x="132.5" y="816.292">getOperations():HistoryData[]</text></g><!--class OperationPresenter--><g id="elem_OperationPresenter"><rect codeLine="67" fill="#F1F1F1" height="64.2969" id="OperationPresenter" rx="2.5" ry="2.5" style="stroke:#181818;stroke-width:0.5;" width="287" x="46.5" y="316.5"/><ellipse cx="113.75" cy="332.5" fill="#ADD1B2" rx="11" ry="11" style="stroke:#181818;stroke-width:1.0;"/><path d="M116.0938,328.1719 C115.1563,327.7344 114.5625,327.5938 113.6875,327.5938 C111.0625,327.5938 109.0625,329.6719 109.0625,332.3906 L109.0625,333.5156 C109.0625,336.0938 111.1719,337.9844 114.0625,337.9844 C115.2813,337.9844 116.4375,337.6875 117.1875,337.1406 C117.7656,336.7344 118.0938,336.2813 118.0938,335.8906 C118.0938,335.4375 117.7031,335.0469 117.2344,335.0469 C117.0156,335.0469 116.8125,335.125 116.625,335.3125 C116.1719,335.7969 116.1719,335.7969 115.9844,335.8906 C115.5625,336.1563 114.875,336.2813 114.1094,336.2813 C112.0625,336.2813 110.7656,335.1875 110.7656,333.4844 L110.7656,332.3906 C110.7656,330.6094 112.0156,329.2969 113.75,329.2969 C114.3281,329.2969 114.9375,329.4531 115.4063,329.7031 C115.8906,329.9844 116.0625,330.2031 116.1563,330.6094 C116.2188,331.0156 116.25,331.1406 116.3906,331.2656 C116.5313,331.4063 116.7656,331.5156 116.9844,331.5156 C117.25,331.5156 117.5156,331.375 117.6875,331.1563 C117.7969,331 117.8281,330.8125 117.8281,330.3906 L117.8281,328.9688 C117.8281,328.5313 117.8125,328.4063 117.7188,328.25 C117.5625,327.9844 117.2813,327.8438 116.9844,327.8438 C116.6875,327.8438 116.4844,327.9375 116.2656,328.25 L116.0938,328.1719 Z " fill="#000000"/><text fill="#000000" font-family="sans-serif" font-size="14" lengthAdjust="spacing" textLength="144" x="134.25" y="337.3467">OperationPresenter</text><line style="stroke:#181818;stroke-width:0.5;" x1="47.5" x2="332.5" y1="348.5" y2="348.5"/><line style="stroke:#181818;stroke-width:0.5;" x1="47.5" x2="332.5" y1="356.5" y2="356.5"/><ellipse cx="57.5" cy="370.1484" fill="#84BE84" rx="3" ry="3" style="stroke:#038048;stroke-width:1.0;"/><text fill="#000000" font-family="sans-serif" font-size="14" lengthAdjust="spacing" textLength="261" x="66.5" y="373.4951">ExecuteOperation(payload: Payload)</text></g><!--reverse link OperationData to ResultData--><g id="link_OperationData_ResultData"><path codeLine="43" d="M533,258.139 C533,280.366 533,287.455 533,307.788 " fill="none" id="OperationData-backto-ResultData" style="stroke:#181818;stroke-width:1.0;"/><polygon fill="none" points="533,240.139,527,258.139,539,258.139,533,240.139" style="stroke:#181818;stroke-width:1.0;"/></g><!--link app to OperationPresenter--><g id="link_app_OperationPresenter"><path codeLine="72" d="M190,207.508 C190,235.941 190,278.449 190,310.238 " fill="none" id="app-to-OperationPresenter" style="stroke:#181818;stroke-width:1.0;stroke-dasharray:7.0,7.0;"/><polygon fill="#181818" points="190,316.238,194,307.238,190,311.238,186,307.238,190,316.238" style="stroke:#181818;stroke-width:1.0;"/></g><!--link OperationPresenter to OperationControllerFactory--><g id="link_OperationPresenter_OperationControllerFactory"><path codeLine="74" d="M214.001,380.825 C238.86,413.27 273.8188,458.8963 298.5898,491.2253 " fill="none" id="OperationPresenter-to-OperationControllerFactory" style="stroke:#181818;stroke-width:1.0;stroke-dasharray:7.0,7.0;"/><polygon fill="#181818" points="302.239,495.988,299.9403,486.4112,299.198,492.0191,293.59,491.2768,302.239,495.988" style="stroke:#181818;stroke-width:1.0;"/></g><!--link OperationControllerFactory to SumController--><g id="link_OperationControllerFactory_SumController"><path codeLine="75" d="M336.657,560.151 C343.107,579.005 349.253,596.97 355.136,614.168 " fill="none" id="OperationControllerFactory-to-SumController" style="stroke:#181818;stroke-width:1.0;stroke-dasharray:7.0,7.0;"/><polygon fill="#181818" points="357.078,619.845,357.9497,610.0348,355.4597,615.1141,350.3804,612.6241,357.078,619.845" style="stroke:#181818;stroke-width:1.0;"/></g><!--link OperationControllerFactory to ErrorControler--><g id="link_OperationControllerFactory_ErrorControler"><path codeLine="76" d="M289.657,560.151 C267.66,579.005 244.6334,598.7421 224.5704,615.9401 " fill="none" id="OperationControllerFactory-to-ErrorControler" style="stroke:#181818;stroke-width:1.0;stroke-dasharray:7.0,7.0;"/><polygon fill="#181818" points="220.015,619.845,229.4514,617.0246,223.8112,616.5909,224.2449,610.9507,220.015,619.845" style="stroke:#181818;stroke-width:1.0;"/></g><!--link ErrorControler to OperationHistory--><g id="link_ErrorControler_OperationHistory"><path codeLine="78" d="M210.575,668.014 C226.162,688.427 245.6253,713.9155 264.1693,738.1975 " fill="none" id="ErrorControler-to-OperationHistory" style="stroke:#181818;stroke-width:1.0;stroke-dasharray:7.0,7.0;"/><polygon fill="#181818" points="267.811,742.966,265.5275,733.3855,264.7763,738.9923,259.1695,738.2411,267.811,742.966" style="stroke:#181818;stroke-width:1.0;"/></g><!--link SumController to OperationHistory--><g id="link_SumController_OperationHistory"><path codeLine="79" d="M353.786,668.014 C343.839,688.427 331.7242,713.2903 319.8922,737.5723 " fill="none" id="SumController-to-OperationHistory" style="stroke:#181818;stroke-width:1.0;stroke-dasharray:7.0,7.0;"/><polygon fill="#181818" points="317.264,742.966,324.8022,736.6275,319.4542,738.4712,317.6105,733.1232,317.264,742.966" style="stroke:#181818;stroke-width:1.0;"/></g><!--SRC=[jLHDJyCm3BttL-JOQWm9ZZbCGWC4Xuc9ZHFYaBLcg-YQA4aHqzX_fn-XhPEK3I5oYkndnyzsdc3n6ri3kPhVxuE0b4SOIvfhaAyi1hMlxNrVp7CjUPQ1J3jdTTeWyY10CftoVDfYCRGwOKJVUPeuzZNeDlwQQHOAjiiuIoYPDvU84WHmCi07n8M65XJoFjoABhCzWYeoxKt5agH5B_bTgZINkocN4cATxKBPHlQpH7J5UGOiH-aEGNTpchhb2MHMFo4ljbsjovq0juaZSYCbbwRF83s0nTFCgkFOr2eExbDbDIkG5zHSo03WyXlW-7cV2iNC7F26gPeP9VvU3d3eXa1S1isq1kjht3DGgfm89KhBD5-VzgnP37_ZViKRXad_iKRpU_vpiASKr9lGk13ZpudrcGFyNqnqd36b21DYVy1A5NiKfW5xHEYMnTMOS0j6Fo13qxGpFBM8Ua82zwCtXU0VkhVTYsBRaqd46gd383-pV3OhKQXDr-o-L1rJgX7IO5KATM-_drzi7REA5ULBK6tTOC5p5s6qp1PkH_hzsr7k1Ja_dtXUQFok7SETkUCenrr7excT4c0fTHs2RRWgq_GQXnxpmmvV]--></g></svg>