<?xml version="1.0" encoding="us-ascii" standalone="no"?><svg xmlns="http://www.w3.org/2000/svg" xmlns:xlink="http://www.w3.org/1999/xlink" contentStyleType="text/css" height="871px" preserveAspectRatio="none" style="width:1811px;height:871px;background:#FFFFFF;" version="1.1" viewBox="0 0 1811 871" width="1811px" zoomAndPan="magnify"><defs/><g><!--cluster API--><g id="cluster_API"><path d="M8.5,6 L35.5,6 A3.75,3.75 0 0 1 38,8.5 L45,28.2969 L1801.5,28.2969 A2.5,2.5 0 0 1 1804,30.7969 L1804,861.5 A2.5,2.5 0 0 1 1801.5,864 L8.5,864 A2.5,2.5 0 0 1 6,861.5 L6,8.5 A2.5,2.5 0 0 1 8.5,6 " fill="none" style="stroke:#000000;stroke-width:1.5;"/><line style="stroke:#000000;stroke-width:1.5;" x1="6" x2="45" y1="28.2969" y2="28.2969"/><text fill="#000000" font-family="sans-serif" font-size="14" font-weight="bold" lengthAdjust="spacing" textLength="26" x="10" y="20.9951">API</text></g><!--cluster interfaces--><g id="cluster_interfaces"><path d="M476.5,49 L560.5,49 A3.75,3.75 0 0 1 563,51.5 L570,71.2969 L1777.5,71.2969 A2.5,2.5 0 0 1 1780,73.7969 L1780,434.5 A2.5,2.5 0 0 1 1777.5,437 L476.5,437 A2.5,2.5 0 0 1 474,434.5 L474,51.5 A2.5,2.5 0 0 1 476.5,49 " fill="none" style="stroke:#000000;stroke-width:1.5;"/><line style="stroke:#000000;stroke-width:1.5;" x1="474" x2="570" y1="71.2969" y2="71.2969"/><text fill="#000000" font-family="sans-serif" font-size="14" font-weight="bold" lengthAdjust="spacing" textLength="83" x="478" y="63.9951">interfaces</text></g><!--cluster controlleri--><g id="cluster_controlleri"><path d="M1242.5,100 L1328.5,100 A3.75,3.75 0 0 1 1331,102.5 L1338,122.2969 L1753.5,122.2969 A2.5,2.5 0 0 1 1756,124.7969 L1756,245.5 A2.5,2.5 0 0 1 1753.5,248 L1242.5,248 A2.5,2.5 0 0 1 1240,245.5 L1240,102.5 A2.5,2.5 0 0 1 1242.5,100 " fill="none" style="stroke:#000000;stroke-width:1.5;"/><line style="stroke:#000000;stroke-width:1.5;" x1="1240" x2="1338" y1="122.2969" y2="122.2969"/><text fill="#000000" font-family="sans-serif" font-size="14" font-weight="bold" lengthAdjust="spacing" textLength="85" x="1244" y="114.9951">controlleri</text></g><!--cluster modeli--><g id="cluster_modeli"><path d="M500.5,92 L555.5,92 A3.75,3.75 0 0 1 558,94.5 L565,114.2969 L1213.5,114.2969 A2.5,2.5 0 0 1 1216,116.7969 L1216,410.5 A2.5,2.5 0 0 1 1213.5,413 L500.5,413 A2.5,2.5 0 0 1 498,410.5 L498,94.5 A2.5,2.5 0 0 1 500.5,92 " fill="none" style="stroke:#000000;stroke-width:1.5;"/><line style="stroke:#000000;stroke-width:1.5;" x1="498" x2="565" y1="114.2969" y2="114.2969"/><text fill="#000000" font-family="sans-serif" font-size="14" font-weight="bold" lengthAdjust="spacing" textLength="54" x="502" y="106.9951">modeli</text></g><!--cluster controller--><g id="cluster_controller"><path d="M32.5,461 L113.5,461 A3.75,3.75 0 0 1 116,463.5 L123,483.2969 L619.5,483.2969 A2.5,2.5 0 0 1 622,485.7969 L622,681.5 A2.5,2.5 0 0 1 619.5,684 L32.5,684 A2.5,2.5 0 0 1 30,681.5 L30,463.5 A2.5,2.5 0 0 1 32.5,461 " fill="none" style="stroke:#000000;stroke-width:1.5;"/><line style="stroke:#000000;stroke-width:1.5;" x1="30" x2="123" y1="483.2969" y2="483.2969"/><text fill="#000000" font-family="sans-serif" font-size="14" font-weight="bold" lengthAdjust="spacing" textLength="80" x="34" y="475.9951">controller</text></g><!--cluster model--><g id="cluster_model"><path d="M98.5,708 L148.5,708 A3.75,3.75 0 0 1 151,710.5 L158,730.2969 L497.5,730.2969 A2.5,2.5 0 0 1 500,732.7969 L500,837.5 A2.5,2.5 0 0 1 497.5,840 L98.5,840 A2.5,2.5 0 0 1 96,837.5 L96,710.5 A2.5,2.5 0 0 1 98.5,708 " fill="none" style="stroke:#000000;stroke-width:1.5;"/><line style="stroke:#000000;stroke-width:1.5;" x1="96" x2="158" y1="730.2969" y2="730.2969"/><text fill="#000000" font-family="sans-serif" font-size="14" font-weight="bold" lengthAdjust="spacing" textLength="49" x="100" y="722.9951">model</text></g><!--cluster presenter--><g id="cluster_presenter"><path d="M32.5,273 L111.5,273 A3.75,3.75 0 0 1 114,275.5 L121,295.2969 L447.5,295.2969 A2.5,2.5 0 0 1 450,297.7969 L450,402.5 A2.5,2.5 0 0 1 447.5,405 L32.5,405 A2.5,2.5 0 0 1 30,402.5 L30,275.5 A2.5,2.5 0 0 1 32.5,273 " fill="none" style="stroke:#000000;stroke-width:1.5;"/><line style="stroke:#000000;stroke-width:1.5;" x1="30" x2="121" y1="295.2969" y2="295.2969"/><text fill="#000000" font-family="sans-serif" font-size="14" font-weight="bold" lengthAdjust="spacing" textLength="78" x="34" y="287.9951">presenter</text></g><!--class app--><g id="elem_app"><rect codeLine="47" fill="#F1F1F1" height="80.5938" id="app" rx="2.5" ry="2.5" style="stroke:#181818;stroke-width:0.5;" width="191" x="144.5" y="143"/><ellipse cx="221.75" cy="159" fill="#ADD1B2" rx="11" ry="11" style="stroke:#181818;stroke-width:1.0;"/><path d="M224.0938,154.6719 C223.1563,154.2344 222.5625,154.0938 221.6875,154.0938 C219.0625,154.0938 217.0625,156.1719 217.0625,158.8906 L217.0625,160.0156 C217.0625,162.5938 219.1719,164.4844 222.0625,164.4844 C223.2813,164.4844 224.4375,164.1875 225.1875,163.6406 C225.7656,163.2344 226.0938,162.7813 226.0938,162.3906 C226.0938,161.9375 225.7031,161.5469 225.2344,161.5469 C225.0156,161.5469 224.8125,161.625 224.625,161.8125 C224.1719,162.2969 224.1719,162.2969 223.9844,162.3906 C223.5625,162.6563 222.875,162.7813 222.1094,162.7813 C220.0625,162.7813 218.7656,161.6875 218.7656,159.9844 L218.7656,158.8906 C218.7656,157.1094 220.0156,155.7969 221.75,155.7969 C222.3281,155.7969 222.9375,155.9531 223.4063,156.2031 C223.8906,156.4844 224.0625,156.7031 224.1563,157.1094 C224.2188,157.5156 224.25,157.6406 224.3906,157.7656 C224.5313,157.9063 224.7656,158.0156 224.9844,158.0156 C225.25,158.0156 225.5156,157.875 225.6875,157.6563 C225.7969,157.5 225.8281,157.3125 225.8281,156.8906 L225.8281,155.4688 C225.8281,155.0313 225.8125,154.9063 225.7188,154.75 C225.5625,154.4844 225.2813,154.3438 224.9844,154.3438 C224.6875,154.3438 224.4844,154.4375 224.2656,154.75 L224.0938,154.6719 Z " fill="#000000"/><text fill="#000000" font-family="sans-serif" font-size="14" lengthAdjust="spacing" textLength="28" x="242.25" y="163.8467">app</text><line style="stroke:#181818;stroke-width:0.5;" x1="145.5" x2="334.5" y1="175" y2="175"/><line style="stroke:#181818;stroke-width:0.5;" x1="145.5" x2="334.5" y1="183" y2="183"/><ellipse cx="155.5" cy="196.6484" fill="#84BE84" rx="3" ry="3" style="stroke:#038048;stroke-width:1.0;"/><text fill="#000000" font-family="sans-serif" font-size="14" lengthAdjust="spacing" textLength="158" x="164.5" y="199.9951">app.get("/operation")</text><ellipse cx="155.5" cy="212.9453" fill="#84BE84" rx="3" ry="3" style="stroke:#038048;stroke-width:1.0;"/><text fill="#000000" font-family="sans-serif" font-size="14" lengthAdjust="spacing" textLength="165" x="164.5" y="216.292">app.get("/operations")</text></g><!--class OperationController--><g id="elem_OperationController"><rect codeLine="5" fill="#F1F1F1" height="96.8906" id="OperationController" rx="2.5" ry="2.5" style="stroke:#181818;stroke-width:0.5;" width="483" x="1256.5" y="135"/><ellipse cx="1422.75" cy="151" fill="#B4A7E5" rx="11" ry="11" style="stroke:#181818;stroke-width:1.0;"/><path d="M1423.7031,147.7813 L1425.4219,147.7813 C1425.8125,147.7813 1426,147.75 1426.125,147.6719 C1426.3906,147.5156 1426.5313,147.2344 1426.5313,146.9375 C1426.5313,146.6719 1426.4219,146.4063 1426.1875,146.2344 C1426.0156,146.125 1425.875,146.0938 1425.4219,146.0938 L1420.2813,146.0938 C1419.8438,146.0938 1419.7188,146.1094 1419.5625,146.2031 C1419.3125,146.3594 1419.1563,146.6563 1419.1563,146.9375 C1419.1563,147.2188 1419.2969,147.4688 1419.5156,147.6406 C1419.6719,147.75 1419.8594,147.7813 1420.2813,147.7813 L1422,147.7813 L1422,154.2969 L1420.2813,154.2969 C1419.8438,154.2969 1419.7188,154.3125 1419.5625,154.4219 C1419.3125,154.5781 1419.1563,154.8594 1419.1563,155.1563 C1419.1563,155.4063 1419.2969,155.6719 1419.5156,155.8281 C1419.6719,155.9531 1419.875,156 1420.2813,156 L1425.4219,156 C1426.1719,156 1426.5313,155.7188 1426.5313,155.1563 C1426.5313,154.875 1426.4219,154.625 1426.1875,154.4531 C1426.0156,154.3281 1425.875,154.2969 1425.4219,154.2969 L1423.7031,154.2969 L1423.7031,147.7813 Z " fill="#000000"/><text fill="#000000" font-family="sans-serif" font-size="14" font-style="italic" lengthAdjust="spacing" textLength="142" x="1443.25" y="155.8467">OperationController</text><line style="stroke:#181818;stroke-width:0.5;" x1="1257.5" x2="1738.5" y1="167" y2="167"/><line style="stroke:#181818;stroke-width:0.5;" x1="1257.5" x2="1738.5" y1="175" y2="175"/><text fill="#000000" font-family="sans-serif" font-size="14" lengthAdjust="spacing" textLength="378" x="1262.5" y="191.9951">getOperationData(payload: Payload): OperationData</text><text fill="#000000" font-family="sans-serif" font-size="14" lengthAdjust="spacing" textLength="450" x="1262.5" y="208.292">executeOperation(operationData: OperationData): ResultData</text><text fill="#000000" font-family="sans-serif" font-size="14" lengthAdjust="spacing" textLength="471" x="1262.5" y="224.5889">addOperationToHistoryCorrectly(resultData: ResultData):boolean</text></g><!--class OperationType--><g id="elem_OperationType"><rect codeLine="13" fill="#F1F1F1" height="80.5938" id="OperationType" rx="2.5" ry="2.5" style="stroke:#181818;stroke-width:0.5;" width="141" x="786.5" y="143"/><ellipse cx="801.5" cy="159" fill="#EB937F" rx="11" ry="11" style="stroke:#181818;stroke-width:1.0;"/><path d="M800.2969,159.875 L801.75,159.875 L801.75,159.9844 C801.75,160.3906 801.7813,160.5469 801.8594,160.7031 C802.0156,160.9531 802.2969,161.1094 802.5938,161.1094 C802.8438,161.1094 803.1094,160.9688 803.2656,160.75 C803.3906,160.5938 803.4219,160.4375 803.4219,159.9844 L803.4219,158.0625 C803.4219,157.9063 803.4219,157.8594 803.4063,157.7031 C803.3438,157.2344 803.0313,156.9219 802.5781,156.9219 C802.3281,156.9219 802.0625,157.0625 801.8906,157.2813 C801.7813,157.4531 801.75,157.6094 801.75,158.0625 L801.75,158.1875 L800.2969,158.1875 L800.2969,155.7813 L804.2813,155.7813 L804.2813,156.6406 C804.2813,157.0469 804.3125,157.2188 804.3906,157.375 C804.5625,157.625 804.8438,157.7813 805.125,157.7813 C805.3906,157.7813 805.6563,157.6406 805.8281,157.4219 C805.9375,157.25 805.9688,157.1094 805.9688,156.6406 L805.9688,154.0938 L798.3438,154.0938 C797.9063,154.0938 797.7813,154.1094 797.625,154.2031 C797.375,154.3594 797.2188,154.6563 797.2188,154.9375 C797.2188,155.2188 797.3594,155.4688 797.5781,155.6406 C797.7344,155.75 797.9219,155.7813 798.3438,155.7813 L798.5938,155.7813 L798.5938,162.2969 L798.3438,162.2969 C797.9375,162.2969 797.7813,162.3125 797.625,162.4219 C797.375,162.5938 797.2188,162.8594 797.2188,163.1563 C797.2188,163.4219 797.3594,163.6719 797.5781,163.8281 C797.7188,163.9531 797.9531,164 798.3438,164 L806.3438,164 L806.3438,161.4219 C806.3438,160.9844 806.3125,160.8438 806.2344,160.6875 C806.0625,160.4375 805.7813,160.2813 805.5,160.2813 C805.2344,160.2813 804.9688,160.3906 804.7969,160.6406 C804.6875,160.7969 804.6563,160.9375 804.6563,161.4219 L804.6563,162.2969 L800.2969,162.2969 L800.2969,159.875 Z " fill="#000000"/><text fill="#000000" font-family="sans-serif" font-size="14" lengthAdjust="spacing" textLength="109" x="815.5" y="163.8467">OperationType</text><line style="stroke:#181818;stroke-width:0.5;" x1="787.5" x2="926.5" y1="175" y2="175"/><ellipse cx="797.5" cy="188.6484" fill="none" rx="3" ry="3" style="stroke:#038048;stroke-width:1.0;"/><text fill="#000000" font-family="sans-serif" font-size="14" lengthAdjust="spacing" textLength="105" x="806.5" y="191.9951">ErrorControler</text><ellipse cx="797.5" cy="204.9453" fill="none" rx="3" ry="3" style="stroke:#038048;stroke-width:1.0;"/><text fill="#000000" font-family="sans-serif" font-size="14" lengthAdjust="spacing" textLength="30" x="806.5" y="208.292">SUM</text><line style="stroke:#181818;stroke-width:0.5;" x1="787.5" x2="926.5" y1="215.5938" y2="215.5938"/></g><!--class OperationData--><g id="elem_OperationData"><rect codeLine="18" fill="#F1F1F1" height="113.1875" id="OperationData" rx="2.5" ry="2.5" style="stroke:#181818;stroke-width:0.5;" width="237" x="514.5" y="127"/><ellipse cx="576.25" cy="143" fill="#B4A7E5" rx="11" ry="11" style="stroke:#181818;stroke-width:1.0;"/><path d="M577.2031,139.7813 L578.9219,139.7813 C579.3125,139.7813 579.5,139.75 579.625,139.6719 C579.8906,139.5156 580.0313,139.2344 580.0313,138.9375 C580.0313,138.6719 579.9219,138.4063 579.6875,138.2344 C579.5156,138.125 579.375,138.0938 578.9219,138.0938 L573.7813,138.0938 C573.3438,138.0938 573.2188,138.1094 573.0625,138.2031 C572.8125,138.3594 572.6563,138.6563 572.6563,138.9375 C572.6563,139.2188 572.7969,139.4688 573.0156,139.6406 C573.1719,139.75 573.3594,139.7813 573.7813,139.7813 L575.5,139.7813 L575.5,146.2969 L573.7813,146.2969 C573.3438,146.2969 573.2188,146.3125 573.0625,146.4219 C572.8125,146.5781 572.6563,146.8594 572.6563,147.1563 C572.6563,147.4063 572.7969,147.6719 573.0156,147.8281 C573.1719,147.9531 573.375,148 573.7813,148 L578.9219,148 C579.6719,148 580.0313,147.7188 580.0313,147.1563 C580.0313,146.875 579.9219,146.625 579.6875,146.4531 C579.5156,146.3281 579.375,146.2969 578.9219,146.2969 L577.2031,146.2969 L577.2031,139.7813 Z " fill="#000000"/><text fill="#000000" font-family="sans-serif" font-size="14" font-style="italic" lengthAdjust="spacing" textLength="105" x="596.75" y="147.8467">OperationData</text><line style="stroke:#181818;stroke-width:0.5;" x1="515.5" x2="750.5" y1="159" y2="159"/><text fill="#000000" font-family="sans-serif" font-size="14" lengthAdjust="spacing" textLength="130" x="520.5" y="175.9951">number1: number</text><text fill="#000000" font-family="sans-serif" font-size="14" lengthAdjust="spacing" textLength="129" x="520.5" y="192.292">number2: number</text><text fill="#000000" font-family="sans-serif" font-size="14" lengthAdjust="spacing" textLength="225" x="520.5" y="208.5889">operationType: OperationType</text><text fill="#000000" font-family="sans-serif" font-size="14" lengthAdjust="spacing" textLength="127" x="520.5" y="224.8857">hasError: boolean</text><line style="stroke:#181818;stroke-width:0.5;" x1="515.5" x2="750.5" y1="232.1875" y2="232.1875"/></g><!--class ResultData--><g id="elem_ResultData"><rect codeLine="25" fill="#F1F1F1" height="80.5938" id="ResultData" rx="2.5" ry="2.5" style="stroke:#181818;stroke-width:0.5;" width="165" x="550.5" y="308"/><ellipse cx="590.25" cy="324" fill="#B4A7E5" rx="11" ry="11" style="stroke:#181818;stroke-width:1.0;"/><path d="M591.2031,320.7813 L592.9219,320.7813 C593.3125,320.7813 593.5,320.75 593.625,320.6719 C593.8906,320.5156 594.0313,320.2344 594.0313,319.9375 C594.0313,319.6719 593.9219,319.4063 593.6875,319.2344 C593.5156,319.125 593.375,319.0938 592.9219,319.0938 L587.7813,319.0938 C587.3438,319.0938 587.2188,319.1094 587.0625,319.2031 C586.8125,319.3594 586.6563,319.6563 586.6563,319.9375 C586.6563,320.2188 586.7969,320.4688 587.0156,320.6406 C587.1719,320.75 587.3594,320.7813 587.7813,320.7813 L589.5,320.7813 L589.5,327.2969 L587.7813,327.2969 C587.3438,327.2969 587.2188,327.3125 587.0625,327.4219 C586.8125,327.5781 586.6563,327.8594 586.6563,328.1563 C586.6563,328.4063 586.7969,328.6719 587.0156,328.8281 C587.1719,328.9531 587.375,329 587.7813,329 L592.9219,329 C593.6719,329 594.0313,328.7188 594.0313,328.1563 C594.0313,327.875 593.9219,327.625 593.6875,327.4531 C593.5156,327.3281 593.375,327.2969 592.9219,327.2969 L591.2031,327.2969 L591.2031,320.7813 Z " fill="#000000"/><text fill="#000000" font-family="sans-serif" font-size="14" font-style="italic" lengthAdjust="spacing" textLength="78" x="609.75" y="328.8467">ResultData</text><line style="stroke:#181818;stroke-width:0.5;" x1="551.5" x2="714.5" y1="340" y2="340"/><text fill="#000000" font-family="sans-serif" font-size="14" lengthAdjust="spacing" textLength="106" x="556.5" y="356.9951">result: number</text><text fill="#000000" font-family="sans-serif" font-size="14" lengthAdjust="spacing" textLength="153" x="556.5" y="373.292">resultMessage: string</text><line style="stroke:#181818;stroke-width:0.5;" x1="551.5" x2="714.5" y1="380.5938" y2="380.5938"/></g><!--class HistoryOperation--><g id="elem_HistoryOperation"><rect codeLine="30" fill="#F1F1F1" height="96.8906" id="HistoryOperation" rx="2.5" ry="2.5" style="stroke:#181818;stroke-width:0.5;" width="237" x="962.5" y="135"/><ellipse cx="1016.25" cy="151" fill="#B4A7E5" rx="11" ry="11" style="stroke:#181818;stroke-width:1.0;"/><path d="M1017.2031,147.7813 L1018.9219,147.7813 C1019.3125,147.7813 1019.5,147.75 1019.625,147.6719 C1019.8906,147.5156 1020.0313,147.2344 1020.0313,146.9375 C1020.0313,146.6719 1019.9219,146.4063 1019.6875,146.2344 C1019.5156,146.125 1019.375,146.0938 1018.9219,146.0938 L1013.7813,146.0938 C1013.3438,146.0938 1013.2188,146.1094 1013.0625,146.2031 C1012.8125,146.3594 1012.6563,146.6563 1012.6563,146.9375 C1012.6563,147.2188 1012.7969,147.4688 1013.0156,147.6406 C1013.1719,147.75 1013.3594,147.7813 1013.7813,147.7813 L1015.5,147.7813 L1015.5,154.2969 L1013.7813,154.2969 C1013.3438,154.2969 1013.2188,154.3125 1013.0625,154.4219 C1012.8125,154.5781 1012.6563,154.8594 1012.6563,155.1563 C1012.6563,155.4063 1012.7969,155.6719 1013.0156,155.8281 C1013.1719,155.9531 1013.375,156 1013.7813,156 L1018.9219,156 C1019.6719,156 1020.0313,155.7188 1020.0313,155.1563 C1020.0313,154.875 1019.9219,154.625 1019.6875,154.4531 C1019.5156,154.3281 1019.375,154.2969 1018.9219,154.2969 L1017.2031,154.2969 L1017.2031,147.7813 Z " fill="#000000"/><text fill="#000000" font-family="sans-serif" font-size="14" font-style="italic" lengthAdjust="spacing" textLength="121" x="1036.75" y="155.8467">HistoryOperation</text><line style="stroke:#181818;stroke-width:0.5;" x1="963.5" x2="1198.5" y1="167" y2="167"/><text fill="#000000" font-family="sans-serif" font-size="14" lengthAdjust="spacing" textLength="225" x="968.5" y="183.9951">operationType: OperationType</text><text fill="#000000" font-family="sans-serif" font-size="14" lengthAdjust="spacing" textLength="103" x="968.5" y="200.292">error: boolean</text><text fill="#000000" font-family="sans-serif" font-size="14" lengthAdjust="spacing" textLength="153" x="968.5" y="216.5889">resultMessage: string</text><line style="stroke:#181818;stroke-width:0.5;" x1="963.5" x2="1198.5" y1="223.8906" y2="223.8906"/></g><!--class Payload--><g id="elem_Payload"><rect codeLine="36" fill="#F1F1F1" height="96.8906" id="Payload" rx="2.5" ry="2.5" style="stroke:#181818;stroke-width:0.5;" width="142" x="786" y="300"/><ellipse cx="825.3" cy="316" fill="#B4A7E5" rx="11" ry="11" style="stroke:#181818;stroke-width:1.0;"/><path d="M826.2531,312.7813 L827.9719,312.7813 C828.3625,312.7813 828.55,312.75 828.675,312.6719 C828.9406,312.5156 829.0813,312.2344 829.0813,311.9375 C829.0813,311.6719 828.9719,311.4063 828.7375,311.2344 C828.5656,311.125 828.425,311.0938 827.9719,311.0938 L822.8313,311.0938 C822.3938,311.0938 822.2688,311.1094 822.1125,311.2031 C821.8625,311.3594 821.7063,311.6563 821.7063,311.9375 C821.7063,312.2188 821.8469,312.4688 822.0656,312.6406 C822.2219,312.75 822.4094,312.7813 822.8313,312.7813 L824.55,312.7813 L824.55,319.2969 L822.8313,319.2969 C822.3938,319.2969 822.2688,319.3125 822.1125,319.4219 C821.8625,319.5781 821.7063,319.8594 821.7063,320.1563 C821.7063,320.4063 821.8469,320.6719 822.0656,320.8281 C822.2219,320.9531 822.425,321 822.8313,321 L827.9719,321 C828.7219,321 829.0813,320.7188 829.0813,320.1563 C829.0813,319.875 828.9719,319.625 828.7375,319.4531 C828.5656,319.3281 828.425,319.2969 827.9719,319.2969 L826.2531,319.2969 L826.2531,312.7813 Z " fill="#000000"/><text fill="#000000" font-family="sans-serif" font-size="14" font-style="italic" lengthAdjust="spacing" textLength="56" x="844.7" y="320.8467">Payload</text><line style="stroke:#181818;stroke-width:0.5;" x1="787" x2="927" y1="332" y2="332"/><text fill="#000000" font-family="sans-serif" font-size="14" lengthAdjust="spacing" textLength="130" x="792" y="348.9951">number1: number</text><text fill="#000000" font-family="sans-serif" font-size="14" lengthAdjust="spacing" textLength="129" x="792" y="365.292">number2: number</text><text fill="#000000" font-family="sans-serif" font-size="14" lengthAdjust="spacing" textLength="122" x="792" y="381.5889">operation: string</text><line style="stroke:#181818;stroke-width:0.5;" x1="787" x2="927" y1="388.8906" y2="388.8906"/></g><!--class OperationControllerFactory--><g id="elem_OperationControllerFactory"><rect codeLine="53" fill="#F1F1F1" height="64.2969" id="OperationControllerFactory" rx="2.5" ry="2.5" style="stroke:#181818;stroke-width:0.5;" width="559" x="46.5" y="496"/><ellipse cx="221.75" cy="512" fill="#ADD1B2" rx="11" ry="11" style="stroke:#181818;stroke-width:1.0;"/><path d="M224.0938,507.6719 C223.1563,507.2344 222.5625,507.0938 221.6875,507.0938 C219.0625,507.0938 217.0625,509.1719 217.0625,511.8906 L217.0625,513.0156 C217.0625,515.5938 219.1719,517.4844 222.0625,517.4844 C223.2813,517.4844 224.4375,517.1875 225.1875,516.6406 C225.7656,516.2344 226.0938,515.7813 226.0938,515.3906 C226.0938,514.9375 225.7031,514.5469 225.2344,514.5469 C225.0156,514.5469 224.8125,514.625 224.625,514.8125 C224.1719,515.2969 224.1719,515.2969 223.9844,515.3906 C223.5625,515.6563 222.875,515.7813 222.1094,515.7813 C220.0625,515.7813 218.7656,514.6875 218.7656,512.9844 L218.7656,511.8906 C218.7656,510.1094 220.0156,508.7969 221.75,508.7969 C222.3281,508.7969 222.9375,508.9531 223.4063,509.2031 C223.8906,509.4844 224.0625,509.7031 224.1563,510.1094 C224.2188,510.5156 224.25,510.6406 224.3906,510.7656 C224.5313,510.9063 224.7656,511.0156 224.9844,511.0156 C225.25,511.0156 225.5156,510.875 225.6875,510.6563 C225.7969,510.5 225.8281,510.3125 225.8281,509.8906 L225.8281,508.4688 C225.8281,508.0313 225.8125,507.9063 225.7188,507.75 C225.5625,507.4844 225.2813,507.3438 224.9844,507.3438 C224.6875,507.3438 224.4844,507.4375 224.2656,507.75 L224.0938,507.6719 Z " fill="#000000"/><text fill="#000000" font-family="sans-serif" font-size="14" lengthAdjust="spacing" textLength="200" x="242.25" y="516.8467">OperationControllerFactory</text><line style="stroke:#181818;stroke-width:0.5;" x1="47.5" x2="604.5" y1="528" y2="528"/><line style="stroke:#181818;stroke-width:0.5;" x1="47.5" x2="604.5" y1="536" y2="536"/><ellipse cx="57.5" cy="549.6484" fill="#84BE84" rx="3" ry="3" style="stroke:#038048;stroke-width:1.0;"/><text fill="#000000" font-family="sans-serif" font-size="14" lengthAdjust="spacing" textLength="533" x="66.5" y="552.9951">OperationControllerFactory(Payload, OperationType):OperationController</text></g><!--class ErrorControler--><g id="elem_ErrorControler"><rect codeLine="56" fill="#F1F1F1" height="48" id="ErrorControler" rx="2.5" ry="2.5" style="stroke:#181818;stroke-width:0.5;" width="137" x="124.5" y="620"/><ellipse cx="139.5" cy="636" fill="#ADD1B2" rx="11" ry="11" style="stroke:#181818;stroke-width:1.0;"/><path d="M141.8438,631.6719 C140.9063,631.2344 140.3125,631.0938 139.4375,631.0938 C136.8125,631.0938 134.8125,633.1719 134.8125,635.8906 L134.8125,637.0156 C134.8125,639.5938 136.9219,641.4844 139.8125,641.4844 C141.0313,641.4844 142.1875,641.1875 142.9375,640.6406 C143.5156,640.2344 143.8438,639.7813 143.8438,639.3906 C143.8438,638.9375 143.4531,638.5469 142.9844,638.5469 C142.7656,638.5469 142.5625,638.625 142.375,638.8125 C141.9219,639.2969 141.9219,639.2969 141.7344,639.3906 C141.3125,639.6563 140.625,639.7813 139.8594,639.7813 C137.8125,639.7813 136.5156,638.6875 136.5156,636.9844 L136.5156,635.8906 C136.5156,634.1094 137.7656,632.7969 139.5,632.7969 C140.0781,632.7969 140.6875,632.9531 141.1563,633.2031 C141.6406,633.4844 141.8125,633.7031 141.9063,634.1094 C141.9688,634.5156 142,634.6406 142.1406,634.7656 C142.2813,634.9063 142.5156,635.0156 142.7344,635.0156 C143,635.0156 143.2656,634.875 143.4375,634.6563 C143.5469,634.5 143.5781,634.3125 143.5781,633.8906 L143.5781,632.4688 C143.5781,632.0313 143.5625,631.9063 143.4688,631.75 C143.3125,631.4844 143.0313,631.3438 142.7344,631.3438 C142.4375,631.3438 142.2344,631.4375 142.0156,631.75 L141.8438,631.6719 Z " fill="#000000"/><text fill="#000000" font-family="sans-serif" font-size="14" lengthAdjust="spacing" textLength="105" x="153.5" y="640.8467">ErrorControler</text><line style="stroke:#181818;stroke-width:0.5;" x1="125.5" x2="260.5" y1="652" y2="652"/><line style="stroke:#181818;stroke-width:0.5;" x1="125.5" x2="260.5" y1="660" y2="660"/></g><!--class SumController--><g id="elem_SumController"><rect codeLine="57" fill="#F1F1F1" height="48" id="SumController" rx="2.5" ry="2.5" style="stroke:#181818;stroke-width:0.5;" width="136" x="297" y="620"/><ellipse cx="312" cy="636" fill="#ADD1B2" rx="11" ry="11" style="stroke:#181818;stroke-width:1.0;"/><path d="M314.3438,631.6719 C313.4063,631.2344 312.8125,631.0938 311.9375,631.0938 C309.3125,631.0938 307.3125,633.1719 307.3125,635.8906 L307.3125,637.0156 C307.3125,639.5938 309.4219,641.4844 312.3125,641.4844 C313.5313,641.4844 314.6875,641.1875 315.4375,640.6406 C316.0156,640.2344 316.3438,639.7813 316.3438,639.3906 C316.3438,638.9375 315.9531,638.5469 315.4844,638.5469 C315.2656,638.5469 315.0625,638.625 314.875,638.8125 C314.4219,639.2969 314.4219,639.2969 314.2344,639.3906 C313.8125,639.6563 313.125,639.7813 312.3594,639.7813 C310.3125,639.7813 309.0156,638.6875 309.0156,636.9844 L309.0156,635.8906 C309.0156,634.1094 310.2656,632.7969 312,632.7969 C312.5781,632.7969 313.1875,632.9531 313.6563,633.2031 C314.1406,633.4844 314.3125,633.7031 314.4063,634.1094 C314.4688,634.5156 314.5,634.6406 314.6406,634.7656 C314.7813,634.9063 315.0156,635.0156 315.2344,635.0156 C315.5,635.0156 315.7656,634.875 315.9375,634.6563 C316.0469,634.5 316.0781,634.3125 316.0781,633.8906 L316.0781,632.4688 C316.0781,632.0313 316.0625,631.9063 315.9688,631.75 C315.8125,631.4844 315.5313,631.3438 315.2344,631.3438 C314.9375,631.3438 314.7344,631.4375 314.5156,631.75 L314.3438,631.6719 Z " fill="#000000"/><text fill="#000000" font-family="sans-serif" font-size="14" lengthAdjust="spacing" textLength="104" x="326" y="640.8467">SumController</text><line style="stroke:#181818;stroke-width:0.5;" x1="298" x2="432" y1="652" y2="652"/><line style="stroke:#181818;stroke-width:0.5;" x1="298" x2="432" y1="660" y2="660"/></g><!--class OperationHistory--><g id="elem_OperationHistory"><rect codeLine="61" fill="#F1F1F1" height="80.5938" id="OperationHistory" rx="2.5" ry="2.5" style="stroke:#181818;stroke-width:0.5;" width="371" x="112.5" y="743"/><ellipse cx="231.75" cy="759" fill="#ADD1B2" rx="11" ry="11" style="stroke:#181818;stroke-width:1.0;"/><path d="M234.0938,754.6719 C233.1563,754.2344 232.5625,754.0938 231.6875,754.0938 C229.0625,754.0938 227.0625,756.1719 227.0625,758.8906 L227.0625,760.0156 C227.0625,762.5938 229.1719,764.4844 232.0625,764.4844 C233.2813,764.4844 234.4375,764.1875 235.1875,763.6406 C235.7656,763.2344 236.0938,762.7813 236.0938,762.3906 C236.0938,761.9375 235.7031,761.5469 235.2344,761.5469 C235.0156,761.5469 234.8125,761.625 234.625,761.8125 C234.1719,762.2969 234.1719,762.2969 233.9844,762.3906 C233.5625,762.6563 232.875,762.7813 232.1094,762.7813 C230.0625,762.7813 228.7656,761.6875 228.7656,759.9844 L228.7656,758.8906 C228.7656,757.1094 230.0156,755.7969 231.75,755.7969 C232.3281,755.7969 232.9375,755.9531 233.4063,756.2031 C233.8906,756.4844 234.0625,756.7031 234.1563,757.1094 C234.2188,757.5156 234.25,757.6406 234.3906,757.7656 C234.5313,757.9063 234.7656,758.0156 234.9844,758.0156 C235.25,758.0156 235.5156,757.875 235.6875,757.6563 C235.7969,757.5 235.8281,757.3125 235.8281,756.8906 L235.8281,755.4688 C235.8281,755.0313 235.8125,754.9063 235.7188,754.75 C235.5625,754.4844 235.2813,754.3438 234.9844,754.3438 C234.6875,754.3438 234.4844,754.4375 234.2656,754.75 L234.0938,754.6719 Z " fill="#000000"/><text fill="#000000" font-family="sans-serif" font-size="14" lengthAdjust="spacing" textLength="124" x="252.25" y="763.8467">OperationHistory</text><line style="stroke:#181818;stroke-width:0.5;" x1="113.5" x2="482.5" y1="775" y2="775"/><line style="stroke:#181818;stroke-width:0.5;" x1="113.5" x2="482.5" y1="783" y2="783"/><ellipse cx="123.5" cy="796.6484" fill="#84BE84" rx="3" ry="3" style="stroke:#038048;stroke-width:1.0;"/><text fill="#000000" font-family="sans-serif" font-size="14" lengthAdjust="spacing" textLength="345" x="132.5" y="799.9951">pushResultData(resultData:ResultData):boolean</text><ellipse cx="123.5" cy="812.9453" fill="#84BE84" rx="3" ry="3" style="stroke:#038048;stroke-width:1.0;"/><text fill="#000000" font-family="sans-serif" font-size="14" lengthAdjust="spacing" textLength="215" x="132.5" y="816.292">getOperations():HistoryData[]</text></g><!--class OperationPresenter--><g id="elem_OperationPresenter"><rect codeLine="69" fill="#F1F1F1" height="80.5938" id="OperationPresenter" rx="2.5" ry="2.5" style="stroke:#181818;stroke-width:0.5;" width="387" x="46.5" y="308"/><ellipse cx="163.75" cy="324" fill="#ADD1B2" rx="11" ry="11" style="stroke:#181818;stroke-width:1.0;"/><path d="M166.0938,319.6719 C165.1563,319.2344 164.5625,319.0938 163.6875,319.0938 C161.0625,319.0938 159.0625,321.1719 159.0625,323.8906 L159.0625,325.0156 C159.0625,327.5938 161.1719,329.4844 164.0625,329.4844 C165.2813,329.4844 166.4375,329.1875 167.1875,328.6406 C167.7656,328.2344 168.0938,327.7813 168.0938,327.3906 C168.0938,326.9375 167.7031,326.5469 167.2344,326.5469 C167.0156,326.5469 166.8125,326.625 166.625,326.8125 C166.1719,327.2969 166.1719,327.2969 165.9844,327.3906 C165.5625,327.6563 164.875,327.7813 164.1094,327.7813 C162.0625,327.7813 160.7656,326.6875 160.7656,324.9844 L160.7656,323.8906 C160.7656,322.1094 162.0156,320.7969 163.75,320.7969 C164.3281,320.7969 164.9375,320.9531 165.4063,321.2031 C165.8906,321.4844 166.0625,321.7031 166.1563,322.1094 C166.2188,322.5156 166.25,322.6406 166.3906,322.7656 C166.5313,322.9063 166.7656,323.0156 166.9844,323.0156 C167.25,323.0156 167.5156,322.875 167.6875,322.6563 C167.7969,322.5 167.8281,322.3125 167.8281,321.8906 L167.8281,320.4688 C167.8281,320.0313 167.8125,319.9063 167.7188,319.75 C167.5625,319.4844 167.2813,319.3438 166.9844,319.3438 C166.6875,319.3438 166.4844,319.4375 166.2656,319.75 L166.0938,319.6719 Z " fill="#000000"/><text fill="#000000" font-family="sans-serif" font-size="14" lengthAdjust="spacing" textLength="144" x="184.25" y="328.8467">OperationPresenter</text><line style="stroke:#181818;stroke-width:0.5;" x1="47.5" x2="432.5" y1="340" y2="340"/><line style="stroke:#181818;stroke-width:0.5;" x1="47.5" x2="432.5" y1="348" y2="348"/><ellipse cx="57.5" cy="361.6484" fill="#84BE84" rx="3" ry="3" style="stroke:#038048;stroke-width:1.0;"/><text fill="#000000" font-family="sans-serif" font-size="14" lengthAdjust="spacing" textLength="261" x="66.5" y="364.9951">ExecuteOperation(payload: Payload)</text><ellipse cx="57.5" cy="377.9453" fill="#84BE84" rx="3" ry="3" style="stroke:#038048;stroke-width:1.0;"/><text fill="#000000" font-family="sans-serif" font-size="14" lengthAdjust="spacing" textLength="361" x="66.5" y="381.292">getAllOperations():GenaralResponseAllOperations</text></g><!--reverse link OperationData to ResultData--><g id="link_OperationData_ResultData"><path codeLine="42" d="M633,258.139 C633,280.366 633,287.455 633,307.788 " fill="none" id="OperationData-backto-ResultData" style="stroke:#181818;stroke-width:1.0;"/><polygon fill="none" points="633,240.139,627,258.139,639,258.139,633,240.139" style="stroke:#181818;stroke-width:1.0;"/></g><!--link app to OperationPresenter--><g id="link_app_OperationPresenter"><path codeLine="75" d="M240,224.374 C240,249.727 240,276.427 240,301.755 " fill="none" id="app-to-OperationPresenter" style="stroke:#181818;stroke-width:1.0;stroke-dasharray:7.0,7.0;"/><polygon fill="#181818" points="240,307.755,244,298.755,240,302.755,236,298.755,240,307.755" style="stroke:#181818;stroke-width:1.0;"/></g><!--link OperationPresenter to OperationControllerFactory--><g id="link_OperationPresenter_OperationControllerFactory"><path codeLine="77" d="M259.3,389.334 C274.9,421.531 293.9349,460.8194 308.2869,490.4414 " fill="none" id="OperationPresenter-to-OperationControllerFactory" style="stroke:#181818;stroke-width:1.0;stroke-dasharray:7.0,7.0;"/><polygon fill="#181818" points="310.903,495.841,310.5785,485.9975,308.7229,491.3413,303.3791,489.4857,310.903,495.841" style="stroke:#181818;stroke-width:1.0;"/></g><!--link OperationControllerFactory to SumController--><g id="link_OperationControllerFactory_SumController"><path codeLine="78" d="M336.657,560.151 C343.107,579.005 349.253,596.97 355.136,614.168 " fill="none" id="OperationControllerFactory-to-SumController" style="stroke:#181818;stroke-width:1.0;stroke-dasharray:7.0,7.0;"/><polygon fill="#181818" points="357.078,619.845,357.9497,610.0348,355.4597,615.1141,350.3804,612.6241,357.078,619.845" style="stroke:#181818;stroke-width:1.0;"/></g><!--link OperationControllerFactory to ErrorControler--><g id="link_OperationControllerFactory_ErrorControler"><path codeLine="79" d="M289.657,560.151 C267.66,579.005 244.6334,598.7421 224.5704,615.9401 " fill="none" id="OperationControllerFactory-to-ErrorControler" style="stroke:#181818;stroke-width:1.0;stroke-dasharray:7.0,7.0;"/><polygon fill="#181818" points="220.015,619.845,229.4514,617.0246,223.8112,616.5909,224.2449,610.9507,220.015,619.845" style="stroke:#181818;stroke-width:1.0;"/></g><!--link ErrorControler to OperationHistory--><g id="link_ErrorControler_OperationHistory"><path codeLine="81" d="M210.575,668.014 C226.162,688.427 245.6253,713.9155 264.1693,738.1975 " fill="none" id="ErrorControler-to-OperationHistory" style="stroke:#181818;stroke-width:1.0;stroke-dasharray:7.0,7.0;"/><polygon fill="#181818" points="267.811,742.966,265.5275,733.3855,264.7763,738.9923,259.1695,738.2411,267.811,742.966" style="stroke:#181818;stroke-width:1.0;"/></g><!--link SumController to OperationHistory--><g id="link_SumController_OperationHistory"><path codeLine="82" d="M353.786,668.014 C343.839,688.427 331.7242,713.2903 319.8922,737.5723 " fill="none" id="SumController-to-OperationHistory" style="stroke:#181818;stroke-width:1.0;stroke-dasharray:7.0,7.0;"/><polygon fill="#181818" points="317.264,742.966,324.8022,736.6275,319.4542,738.4712,317.6105,733.1232,317.264,742.966" style="stroke:#181818;stroke-width:1.0;"/></g><!--SRC=[jLLDJyCm3BttLqISMWs6u9W34kBxW9ZuE24EMMT6HTP4IIenZVrtqZQqTPB294HFQVmSlsSxZcJvEri2EPtTR9A4s4-wdQ8qe5vP3dhJx0zjkIYD4fo3AdfZ_NLEv4w2OgOGvLc7nT3wMuBfSEVCi5IoDHTiGSciNMIK841m0dn0NXdeGAaOmZrlUzezw8gRw55iiUZGZ-Awq4QezPbG2dB3rwdgF8UdP7Gk10TMekEsIRyAahSI2-1Utg2iLZtNnxM4C5aJSg6KK2wVe2A0XwTRZyTlrQarXA4icpce8-eMP0Hm_0q8x68eXM9b0VYDwKOP9V5SZcZeYq121MsrHlcrvblGsbQ44crKKIvt2-iQevEq-Pju65V-HwBk2lrdTNSXD2ZJGIKFFa-y6vtWI-EySywq9apAdlwa_ftQaP7k7NOCzhAVxTe1jdYuvP6Xr8QCpArBbjSLnucS_81CNUhtSUqp6d59mfdH4i6NVUER7whLOB9kOoARGJEgp_MnhqfM-gqlsN3g_JRq9cYSwpIZBaJjylpYZqIFhBIHeExTKSAp4E76ely61Az8oFEKSqJr2agc6BSQfTq0P8vtg6qsCfsUHFYrzd0VmuEkmLw1kV56LT_5mNio6XUyXrcvaZKu52mEstu1]--></g></svg>